<svg width="840" height="264" viewBox="0 0 840 264" fill="none" xmlns="http://www.w3.org/2000/svg">
<g clip-path="url(#clip0_9_530)">
<path d="M1084 -75L-67 -75V576M-67 -59L1084 -59M-67 -43L1084 -43M-67 -27L1084 -27M-67 -11L1084 -11M-67 5.00005L1084 5.00005M-67 21.0001L1084 21.0001M-67 37.0001L1084 37.0001M-67 53.0001L1084 53.0001M-67 69.0001L1084 69.0001M-67 85.0001L1084 85.0001M-67 101L1084 101M-67 117L1084 117M-67 133L1084 133M-67 149L1084 149M-67 165L1084 165M-67 181H1084M-67 197H1084M-67 213H1084M-67 229H1084M-67 245H1084M-67 261H1084M-67 277H1084M-67 293H1084M-67 309H1084M-67 325H1084M-67 341H1084M-67 357H1084M-67 373H1084M-67 389H1084M-67 405H1084M-67 421H1084M-67 437H1084M-67 453H1084M-67 469H1084M-67 485H1084M-67 501H1084M-67 517H1084M-67 533H1084M-67 549H1084M-67 565H1084M-67 581H1084M-67 597H1084M-67 613H1084M-67 629H1084M-67 645H1084M-67 661H1084M-67 677H1084M-67 693H1084M-67 709H1084M-67 725H1084M-67 741H1084M-67 757H1084M-67 773H1084M-67 789H1084M-67 805H1084M-67 821H1084M-67 837H1084M-67 853H1084M-67 869H1084M-51 576V-75M-35 576V-75M-19 576V-75M-3 576V-75M13 576V-75M29 576V-75M45 576V-75M61 576V-75M77 576V-75M93 576V-75M109 576V-75M125 576V-75M141 576V-75M157 576V-75M173 576V-75M189 576V-75M205 576V-75M221 576V-75M237 576V-75M253 576V-75M269 576V-75M285 576V-75M301 576V-75M317 576V-75M333 576V-75M349 576V-75M365 576V-75M381 576V-75M397 576V-75M413 576V-75M429 576V-75M445 576V-75M461 576V-75M477 576V-75M493 576V-75M509 576V-75M525 576V-75M541 576V-75M557 576V-75M573 576V-75M589 576V-75M605 576V-75M621 576V-75M637 576V-75M653 576V-75M669 576V-75M685 576V-75M701 576V-75M717 576V-75M733 576V-75M749 576V-75M765 576V-75M781 576V-75M797 576V-75M813 576V-75M829 576V-75M845 576V-75M861 576V-75M877 576V-75M893 576V-75M909 576V-75M925 576V-75M941 576V-75M957 576V-75M973 576V-75" stroke="url(#paint0_radial_9_530)" stroke-width="0.5" stroke-linecap="round" stroke-linejoin="round"/>
<g filter="url(#filter0_d_9_530)">
<path fill-rule="evenodd" clip-rule="evenodd" d="M428.845 128.504H423.222L416.809 120.513C415.526 119.034 413.554 118.046 411.384 118.046H397.671C395.502 118.046 393.627 119.229 392.641 121.105L388.595 128.799C388.398 129.095 388.3 129.49 388.3 129.983C388.3 131.363 389.484 132.547 390.866 132.547C391.951 132.547 392.739 132.055 393.234 131.167L396.882 124.163H402.801L398.264 135.508L396.882 150.008H385.145C383.269 150.008 381.789 151.193 381.099 152.772L379.817 156.125H399.942C401.42 156.125 402.704 155.041 402.801 153.561L404.183 140.835L415.033 163.327C415.626 164.61 417.007 165.497 418.585 165.497H423.814L410.496 137.974L414.638 127.616L418.585 132.45C419.57 133.733 421.25 134.62 423.024 134.62H428.844L428.845 128.504Z" fill="url(#paint1_linear_9_530)"/>
<path d="M414.738 106.505C411.68 106.505 409.116 109.07 409.116 112.128C409.116 115.187 411.68 117.653 414.738 117.653C417.797 117.653 420.263 115.187 420.263 112.128C420.263 109.07 417.797 106.505 414.738 106.505Z" fill="url(#paint2_linear_9_530)"/>
<path d="M395.518 148.509H390.593L396.184 141.52L395.518 148.509Z" fill="url(#paint3_linear_9_530)"/>
<path fill-rule="evenodd" clip-rule="evenodd" d="M510 69C513.978 69 517.793 70.5805 520.606 73.3936C523.419 76.2066 525 80.0218 525 84V182C525 185.978 523.419 189.793 520.606 192.606C517.793 195.419 513.978 197 510 197H332C328.022 197 324.207 195.419 321.394 192.606C318.581 189.793 317 185.978 317 182V84C317 80.0218 318.581 76.2066 321.394 73.3936C324.207 70.5805 328.022 69 332 69H510ZM461 133H441L471 168L501 133H481V99H461V133ZM347 167H367V128L383.578 148.723C382.06 149.15 380.852 150.18 380.094 151.452L379.904 151.795L379.9 151.802L379.729 152.164L379.726 152.17L379.714 152.196L379.708 152.209L379.698 152.237L377.637 157.626H399.941C402.104 157.626 404.106 156.04 404.293 153.723L405.11 146.207L407 150.124V167H427V99H407L387 124L367 99H347V167Z" fill="url(#paint4_linear_9_530)"/>
</g>
</g>
<rect x="0.5" y="0.5" width="839" height="263" rx="9.5" stroke="url(#paint5_radial_9_530)"/>
<defs>
<filter id="filter0_d_9_530" x="309" y="61" width="224" height="144" filterUnits="userSpaceOnUse" color-interpolation-filters="sRGB">
<feFlood flood-opacity="0" result="BackgroundImageFix"/>
<feColorMatrix in="SourceAlpha" type="matrix" values="0 0 0 0 0 0 0 0 0 0 0 0 0 0 0 0 0 0 127 0" result="hardAlpha"/>
<feOffset/>
<feGaussianBlur stdDeviation="4"/>
<feComposite in2="hardAlpha" operator="out"/>
<feColorMatrix type="matrix" values="0 0 0 0 0 0 0 0 0 0.699444 0 0 0 0 0.42766 0 0 0 0.26 0"/>
<feBlend mode="normal" in2="BackgroundImageFix" result="effect1_dropShadow_9_530"/>
<feBlend mode="normal" in="SourceGraphic" in2="effect1_dropShadow_9_530" result="shape"/>
</filter>
<radialGradient id="paint0_radial_9_530" cx="0" cy="0" r="1" gradientUnits="userSpaceOnUse" gradientTransform="translate(421 133.5) scale(283.5 125.505)">
<stop stop-color="#00AF6B" stop-opacity="0"/>
<stop offset="0.387785" stop-color="#00AF6B" stop-opacity="0.23"/>
<stop offset="0.665768" stop-color="#00AF6B" stop-opacity="0.2"/>
<stop offset="1" stop-color="#161616" stop-opacity="0"/>
</radialGradient>
<linearGradient id="paint1_linear_9_530" x1="421" y1="89" x2="421" y2="197" gradientUnits="userSpaceOnUse">
<stop stop-color="#00EE92"/>
<stop offset="1" stop-color="#008551"/>
</linearGradient>
<linearGradient id="paint2_linear_9_530" x1="421" y1="89" x2="421" y2="197" gradientUnits="userSpaceOnUse">
<stop stop-color="#00EE92"/>
<stop offset="1" stop-color="#008551"/>
</linearGradient>
<linearGradient id="paint3_linear_9_530" x1="421" y1="89" x2="421" y2="197" gradientUnits="userSpaceOnUse">
<stop stop-color="#00EE92"/>
<stop offset="1" stop-color="#008551"/>
</linearGradient>
<linearGradient id="paint4_linear_9_530" x1="421" y1="89" x2="421" y2="197" gradientUnits="userSpaceOnUse">
<stop stop-color="#00EE92"/>
<stop offset="1" stop-color="#008551"/>
</linearGradient>
<radialGradient id="paint5_radial_9_530" cx="0" cy="0" r="1" gradientTransform="matrix(-513.676 -260.906 117.23 -231.629 420 132)" gradientUnits="userSpaceOnUse">
<stop stop-color="#00AF6B" stop-opacity="0.69"/>
<stop offset="1" stop-color="#0FE08F" stop-opacity="0.02"/>
</radialGradient>
<clipPath id="clip0_9_530">
<rect width="840" height="264" rx="10" fill="white"/>
</clipPath>
</defs>
</svg>
