<svg width="100" height="100" viewBox="0 0 100 100" fill="none" xmlns="http://www.w3.org/2000/svg">
<path d="M63.9137 4C59.1329 4 55.1254 7.76551 55.1254 12.254C55.1254 16.7435 59.1329 20.3632 63.9137 20.3632C68.6946 20.3632 72.5502 16.7435 72.5502 12.254C72.5502 7.76551 68.6946 4 63.9137 4Z" fill="url(#paint0_linear_22_45)"/>
<path d="M58.6979 21.4638C62.1141 21.4638 65.219 23.0151 67.2391 25.3379L77.3338 37.8909H85.9732C86.0437 37.8878 86.115 37.8849 86.1864 37.8849C88.8449 37.8851 91 40.0361 91 42.6888C90.9998 45.3413 88.8448 47.4915 86.1864 47.4917L86.1844 47.4907V47.4967H77.0225C74.2289 47.4966 71.5855 46.1043 70.0338 44.089L63.8198 36.4947L57.2995 52.765L78.2667 96H70.0338C67.5494 96 65.3753 94.6049 64.4424 92.5893L47.361 57.2593L45.1859 77.2498C45.0315 79.5751 43.0101 81.2777 40.6835 81.2777H9L11.0189 76.0104C12.106 73.5303 14.4354 71.669 17.3881 71.6689H35.8669L38.043 48.8919L45.1859 31.0706H35.8669L30.1233 42.0726C29.3444 43.4672 28.1029 44.2408 26.3948 44.2408C24.2197 44.2408 22.356 42.3819 22.3559 40.2139C22.3559 39.4394 22.5107 38.818 22.8213 38.3533L29.1905 26.2677C30.7433 23.3216 33.6932 21.4639 37.1091 21.4638H58.6979Z" fill="url(#paint1_linear_22_45)"/>
<defs>
<linearGradient id="paint0_linear_22_45" x1="50" y1="18.375" x2="50" y2="96" gradientUnits="userSpaceOnUse">
<stop stop-color="#00EE92"/>
<stop offset="1" stop-color="#008551"/>
</linearGradient>
<linearGradient id="paint1_linear_22_45" x1="50" y1="18.375" x2="50" y2="96" gradientUnits="userSpaceOnUse">
<stop stop-color="#00EE92"/>
<stop offset="1" stop-color="#008551"/>
</linearGradient>
</defs>
</svg>
